Coordinates
version=1
nRows=16
nColumns=63
inDegrees=yes

Units are S.I. units (second, meters, Newtons, ...)
If the header above contains a line with 'inDegrees', this indicates whether rotational values are in degrees (yes) or radians (no).

endheader
time	pelvis_tilt	pelvis_list	pelvis_rotation	pelvis_tx	pelvis_ty	pelvis_tz	hip_flexion_r	hip_adduction_r	hip_rotation_r	knee_angle_r	knee_angle_r_beta	ankle_angle_r	subtalar_angle_r	mtp_angle_r	hip_flexion_l	hip_adduction_l	hip_rotation_l	knee_angle_l	knee_angle_l_beta	ankle_angle_l	subtalar_angle_l	mtp_angle_l	L5_S1_Flex_Ext	L5_S1_Lat_Bending	L5_S1_axial_rotation	L4_L5_Flex_Ext	L4_L5_Lat_Bending	L4_L5_axial_rotation	L3_L4_Flex_Ext	L3_L4_Lat_Bending	L3_L4_axial_rotation	L2_L3_Flex_Ext	L2_L3_Lat_Bending	L2_L3_axial_rotation	L1_L2_Flex_Ext	L1_L2_Lat_Bending	L1_L2_axial_rotation	L1_T12_Flex_Ext	L1_T12_Lat_Bending	L1_T12_axial_rotation	Abs_r3	Abs_r2	Abs_r1	Abs_t1	Abs_t2	neck_flexion	neck_bending	neck_rotation	arm_flex_r	arm_add_r	arm_rot_r	elbow_flex_r	pro_sup_r	wrist_flex_r	wrist_dev_r	arm_flex_l	arm_add_l	arm_rot_l	elbow_flex_l	pro_sup_l	wrist_flex_l	wrist_dev_l
2.677966	-0.770769	-14.295508	92.776031	0.225138	0.331965	0.994243	17.398084	1.762725	-8.885817	11.695370	0.204123	29.272798	-3.497790	0.000000	21.489582	-2.733643	-1.424934	15.636605	0.272910	33.108774	16.904559	0.000000	-0.113676	-0.013867	-0.401957	-0.211109	-0.018443	-0.427080	-0.186759	-0.033716	-0.427080	-0.129921	-0.033716	-0.351713	-0.105560	-0.028277	-0.326590	-0.064955	-0.021480	-0.301468	-0.811979	-0.156863	-2.235566	0.000000	0.000000	5.960161	-7.774474	14.713193	31.883343	-27.064416	35.932777	111.778622	86.918303	-5.007879	6.277773	-14.631964	-32.842322	-8.534484	133.843180	77.809398	-10.062873	10.942815
2.694915	-0.825246	-14.651698	93.586281	0.224788	0.332552	0.995362	17.141151	1.612739	-9.276220	10.508340	0.183405	28.589775	-3.464683	0.000000	21.991194	-2.432165	-0.762804	15.717777	0.274327	32.586058	16.939633	0.000000	-0.116733	-0.016166	-0.622545	-0.216785	-0.021501	-0.661454	-0.191781	-0.039306	-0.661454	-0.133414	-0.039306	-0.544727	-0.108398	-0.032966	-0.505818	-0.066701	-0.025041	-0.466909	-0.833813	-0.182873	-3.462409	0.000000	0.000000	6.028764	-7.737335	15.987720	33.304650	-26.662371	35.314806	111.971325	86.249971	-6.179555	5.552126	-14.842432	-34.050534	-10.402147	134.918563	77.996288	-9.774062	10.770124
2.711864	-0.903446	-14.972171	94.295506	0.224535	0.333125	0.996281	16.851526	1.464939	-9.555478	9.370991	0.163555	27.889783	-3.480447	0.000000	22.389335	-2.119905	-0.156564	15.732439	0.274583	32.098436	16.948523	0.000000	-0.117417	-0.019060	-0.834958	-0.218056	-0.025350	-0.887143	-0.192905	-0.046344	-0.887143	-0.134196	-0.046344	-0.730588	-0.109034	-0.038868	-0.678404	-0.067092	-0.029525	-0.626219	-0.838699	-0.215616	-4.643787	0.000000	0.000000	6.063125	-7.657251	17.482277	34.778520	-26.142293	34.789041	111.977603	85.593938	-6.961355	5.052435	-15.131068	-35.208769	-12.395880	135.780468	78.490258	-9.547580	10.314816
2.728814	-0.994930	-15.259554	94.882717	0.224414	0.333648	0.996978	16.552093	1.334517	-9.799412	8.318446	0.145184	27.222651	-3.430881	0.000000	22.684615	-1.824004	0.374637	15.676702	0.273610	31.656023	16.935578	0.000000	-0.115668	-0.022404	-1.032886	-0.214808	-0.029797	-1.097441	-0.190032	-0.054472	-1.097441	-0.132197	-0.054472	-0.903775	-0.107410	-0.045685	-0.839220	-0.066093	-0.034703	-0.774665	-0.826208	-0.253434	-5.744602	0.000000	0.000000	6.086453	-7.548334	19.119795	36.289288	-25.527241	34.360075	111.811827	84.893085	-7.335247	4.832885	-15.473694	-36.317597	-14.444337	136.448352	79.245984	-9.444874	9.570155
2.745763	-1.084607	-15.510493	95.358438	0.224445	0.334080	0.997433	16.250719	1.234548	-10.069653	7.369943	0.128630	26.630529	-3.270096	0.000000	22.874342	-1.564998	0.826650	15.544801	0.271308	31.270995	16.904102	0.000000	-0.112935	-0.025189	-1.220840	-0.209732	-0.033502	-1.297142	-0.185542	-0.061245	-1.297142	-0.129074	-0.061245	-1.068235	-0.104872	-0.051366	-0.991932	-0.064531	-0.039018	-0.915630	-0.806687	-0.284946	-6.789945	0.000000	0.000000	6.139939	-7.429957	20.919734	37.870276	-24.830825	34.099950	111.477579	84.184452	-7.352705	4.902419	-15.901099	-37.377453	-16.556023	136.961457	80.185505	-9.452555	8.588820
2.762712	-1.161377	-15.724100	95.741188	0.224633	0.334391	0.997644	15.953121	1.172733	-10.372037	6.535619	0.114068	26.141367	-2.985700	0.000000	22.965801	-1.356507	1.232407	15.343910	0.267802	30.938811	16.858439	0.000000	-0.109641	-0.027367	-1.392010	-0.203614	-0.036398	-1.479011	-0.180129	-0.066540	-1.479011	-0.125308	-0.066540	-1.218009	-0.101812	-0.055807	-1.131008	-0.062649	-0.042391	-1.044008	-0.783152	-0.309579	-7.741944	0.000000	0.000000	6.232409	-7.330098	22.789361	39.492936	-24.120183	34.011346	111.006502	83.387035	-7.082840	5.264838	-16.322794	-38.426686	-18.595548	137.313371	81.163398	-9.534736	7.405773
2.779661	-1.225544	-15.912450	96.036709	0.225017	0.334539	0.997593	15.669211	1.150490	-10.712602	5.806773	0.101347	25.761596	-2.577484	0.000000	22.975274	-1.199659	1.580492	15.080009	0.263196	30.663323	16.795260	0.000000	-0.103503	-0.030101	-1.540622	-0.192216	-0.040034	-1.636910	-0.170046	-0.073187	-1.636910	-0.118294	-0.073187	-1.348044	-0.096113	-0.061381	-1.251755	-0.059142	-0.046626	-1.155466	-0.739315	-0.340505	-8.568475	0.000000	0.000000	6.344152	-7.289929	24.661751	41.105487	-23.420470	34.071724	110.410349	82.401698	-6.543642	5.908318	-16.722072	-39.507918	-20.548169	137.544942	82.047152	-9.646428	6.268361
2.796610	-1.258023	-16.062265	96.293042	0.225550	0.334510	0.997319	15.384953	1.172821	-11.092907	5.181607	0.090436	25.490929	-2.089161	0.000000	22.903184	-1.099686	1.931630	14.761503	0.257637	30.446727	16.701230	0.000000	-0.097651	-0.032158	-1.660972	-0.181348	-0.042770	-1.764783	-0.160431	-0.078189	-1.764783	-0.111606	-0.078189	-1.453350	-0.090679	-0.065577	-1.349540	-0.055798	-0.049813	-1.245729	-0.697514	-0.363778	-9.237827	0.000000	0.000000	6.437677	-7.299507	26.409863	42.720039	-22.868611	34.347845	109.728564	80.965746	-5.950667	6.715240	-16.874413	-40.637879	-22.218002	137.635605	82.749747	-9.707736	5.456584
2.813559	-1.270651	-16.181464	96.506895	0.226265	0.334293	0.996827	15.104881	1.230254	-11.458953	4.649413	0.081148	25.307986	-1.578137	0.000000	22.759597	-1.047159	2.282291	14.393006	0.251205	30.283548	16.575872	0.000000	-0.091474	-0.036830	-1.735986	-0.169877	-0.048983	-1.844485	-0.150283	-0.089547	-1.844485	-0.104546	-0.089547	-1.518988	-0.084943	-0.075103	-1.410488	-0.052268	-0.057049	-1.301989	-0.653393	-0.416624	-9.655032	0.000000	0.000000	6.431283	-7.325523	27.837471	44.235839	-22.546837	34.765071	109.003859	78.957940	-5.402581	7.564642	-16.532044	-41.823473	-23.366124	137.545245	83.245313	-9.694082	5.277273
2.830508	-1.273363	-16.284085	96.681313	0.227167	0.333886	0.996132	14.841518	1.309308	-11.759620	4.201768	0.073335	25.186650	-1.098882	0.000000	22.561790	-1.028406	2.642670	13.976039	0.243928	30.166047	16.402158	0.000000	-0.085043	-0.046670	-1.755380	-0.157933	-0.062071	-1.865091	-0.139717	-0.113473	-1.865091	-0.097195	-0.113473	-1.535957	-0.078971	-0.095169	-1.426246	-0.048593	-0.072292	-1.316535	-0.607451	-0.527940	-9.762895	0.000000	0.000000	6.269901	-7.327688	28.797428	45.573352	-22.513356	35.263996	108.275988	76.384155	-5.012457	8.338784	-15.487831	-43.049137	-23.755041	137.205696	83.524273	-9.572728	5.816109
2.847458	-1.278579	-16.395945	96.756213	0.228344	0.333282	0.995285	14.634434	1.409568	-11.917542	3.842209	0.067059	25.105199	-0.679047	0.000000	22.334149	-1.050188	2.959275	13.512643	0.235840	30.083304	16.169426	0.000000	-0.078757	-0.063878	-1.703275	-0.146260	-0.084957	-1.809729	-0.129390	-0.155312	-1.809729	-0.090011	-0.155312	-1.490365	-0.073134	-0.130259	-1.383911	-0.045002	-0.098946	-1.277456	-0.562553	-0.722596	-9.473102	0.000000	0.000000	5.952869	-7.308719	29.190585	46.656591	-22.761182	35.716597	107.592045	73.381436	-4.700577	9.107960	-13.620471	-44.290052	-23.220026	136.586379	83.608274	-9.374430	7.160615
2.864407	-1.296605	-16.524915	96.785431	0.229740	0.332524	0.994265	14.471142	1.507158	-11.950482	3.527701	0.061570	25.050310	-0.351815	0.000000	22.089942	-1.080606	3.292042	12.998925	0.226874	30.020836	15.875778	0.000000	-0.073772	-0.090493	-1.591392	-0.137003	-0.120356	-1.690854	-0.121200	-0.220024	-1.690854	-0.084314	-0.220024	-1.392468	-0.068505	-0.184533	-1.293006	-0.042153	-0.140173	-1.193544	-0.526948	-1.023674	-8.850843	0.000000	0.000000	5.428578	-7.222269	28.969756	47.425850	-23.229724	36.084575	106.909541	70.132406	-4.611474	9.620976	-11.004386	-45.504963	-21.800528	135.663046	83.555280	-9.072101	9.184833
2.881356	-1.326859	-16.710281	96.689835	0.231421	0.331594	0.993182	14.416327	1.615468	-11.817318	3.274539	0.057151	25.025417	-0.075846	0.000000	21.878547	-1.144194	3.548657	12.457448	0.217423	29.976415	15.526017	0.000000	-0.069418	-0.125826	-1.406332	-0.128917	-0.167349	-1.494228	-0.114048	-0.305935	-1.494228	-0.079338	-0.305935	-1.230541	-0.064462	-0.256585	-1.142645	-0.039666	-0.194905	-1.054749	-0.495849	-1.423374	-7.821598	0.000000	0.000000	4.766622	-7.132735	28.079466	47.848694	-23.857881	36.219994	106.248335	67.017073	-4.640444	10.014149	-7.708548	-46.670392	-19.508083	134.415212	83.376712	-8.768920	11.638546
2.898305	-1.400465	-16.956199	96.452089	0.233417	0.330519	0.992052	14.457684	1.713778	-11.532542	3.042302	0.053098	25.035377	0.209351	0.000000	21.703794	-1.222554	3.645109	11.893127	0.207574	29.947724	15.193611	0.000000	-0.068938	-0.174355	-1.147235	-0.128025	-0.231892	-1.218937	-0.113258	-0.423927	-1.218937	-0.078789	-0.423927	-1.003831	-0.064016	-0.355545	-0.932129	-0.039391	-0.270076	-0.860426	-0.492417	-1.972339	-6.380578	0.000000	0.000000	3.995710	-6.996593	26.520311	47.861576	-24.555755	35.948957	105.599350	64.503116	-4.730585	10.242035	-3.774634	-47.740553	-16.342152	132.782908	82.979770	-8.513494	14.130388
2.915254	-1.464610	-17.308075	96.155811	0.235542	0.329199	0.991123	14.673991	1.821925	-11.108299	2.875408	0.050185	25.093885	0.396009	0.000000	21.692050	-1.326582	3.688433	11.417190	0.199268	29.958382	14.807391	0.000000	-0.070030	-0.226376	-0.871162	-0.130054	-0.301081	-0.925610	-0.115053	-0.550411	-0.925610	-0.080038	-0.550411	-0.762267	-0.065030	-0.461627	-0.707819	-0.040015	-0.350657	-0.653372	-0.500221	-2.560815	-4.845143	0.000000	0.000000	3.238931	-6.859115	24.677060	47.794625	-25.204031	35.662842	104.797197	62.442805	-5.037618	10.287193	0.296320	-48.669198	-12.893235	130.920628	82.287819	-8.265019	16.595068
2.932203	-1.569852	-17.771971	95.710831	0.237922	0.327623	0.990462	15.079209	1.926551	-10.537937	2.773615	0.048409	25.210990	0.581679	0.000000	21.830879	-1.451800	3.537993	11.007437	0.192116	30.005355	14.422643	0.000000	-0.072898	-0.289668	-0.552086	-0.135378	-0.385258	-0.586591	-0.119764	-0.704298	-0.586591	-0.083315	-0.704298	-0.483075	-0.067693	-0.590690	-0.448570	-0.041654	-0.448695	-0.414064	-0.520701	-3.276777	-3.070536	0.000000	0.000000	2.513252	-6.676873	22.463682	47.553077	-25.798737	35.144500	103.878451	61.114050	-5.391576	10.217070	4.650011	-49.443326	-8.999275	128.728483	81.281878	-8.007615	18.752775
